<svg width="16" height="16" viewBox="0 0 16 16" fill="none" xmlns="http://www.w3.org/2000/svg">
<g clip-path="url(#clip0_3045_4672)">
<path d="M15.6894 12.7226L13.9156 11.54L12.3388 10.4889C12.0345 10.2865 11.6255 10.3528 11.4008 10.6412L10.4251 11.8955C10.2155 12.1677 9.83852 12.246 9.53796 12.0795C8.8759 11.7113 8.093 11.3645 6.36559 9.63489C4.63817 7.90525 4.2892 7.12457 3.92093 6.46252C3.75452 6.16196 3.83274 5.78493 4.10493 5.57537L5.35925 4.59967C5.64759 4.37504 5.714 3.96608 5.51153 3.66174L4.4928 2.13348L3.2779 0.311122C3.07112 0.000938136 2.65719 -0.0921858 2.33751 0.0995307L0.9364 0.940083C0.557748 1.16317 0.279407 1.52342 0.159034 1.94613C-0.224118 3.34309 -0.301367 6.42471 4.63733 11.3634C9.57602 16.3021 12.6574 16.2246 14.0543 15.8414C14.477 15.7211 14.8373 15.4427 15.0604 15.064L15.9009 13.663C16.0927 13.3433 15.9995 12.9293 15.6894 12.7226Z" fill="black"/>
</g>
<defs>
<clipPath id="clip0_3045_4672">
<rect width="16" height="16" fill="white"/>
</clipPath>
</defs>
</svg>
